<svg width="28" height="28" viewBox="0 0 28 28" fill="none" xmlns="http://www.w3.org/2000/svg">
<rect x="0.5" y="0.5" width="27" height="27" rx="13.5" stroke="#4D4D4D"/>
<path d="M16.5272 14L20.3177 10.2095C20.7829 9.74436 20.7829 8.99019 20.3177 8.52466L19.4753 7.68224C19.0101 7.21709 18.256 7.21709 17.7904 7.68224L13.9999 11.4728L10.2094 7.68224C9.74424 7.21709 8.99007 7.21709 8.52454 7.68224L7.68212 8.52466C7.21696 8.98981 7.21696 9.74398 7.68212 10.2095L11.4726 14L7.68212 17.7906C7.21696 18.2557 7.21696 19.0099 7.68212 19.4754L8.52454 20.3178C8.98969 20.783 9.74424 20.783 10.2094 20.3178L13.9999 16.5273L17.7904 20.3178C18.2556 20.783 19.0101 20.783 19.4753 20.3178L20.3177 19.4754C20.7829 19.0103 20.7829 18.2561 20.3177 17.7906L16.5272 14Z" fill="white"/>
</svg>
