<svg width="375" height="812" viewBox="0 0 375 812" fill="none" xmlns="http://www.w3.org/2000/svg">
<g clip-path="url(#clip0_402_493340)">
<g opacity="0.4">
<path d="M-64.4599 657.482C-64.4599 657.482 17.4111 585.969 68.7561 537.171C120.101 488.374 200.647 469.534 315.832 484.723C431.018 499.911 392.844 341.87 442.235 360.08C491.627 378.289 330.245 482.917 392.126 350.589C454.008 218.261 525.357 222.139 589.669 191.573C653.98 161.007 491.3 152.077 491.3 152.077" stroke="#F8FFA0"/>
<path d="M-80.5363 348.112C-68.1463 215.922 102.978 343.435 170.315 254.839C237.652 166.243 148.363 153.825 93.2029 187.185C38.0429 220.544 46.1662 298.815 95.5574 317.025C144.948 335.234 247.27 370.145 309.151 237.816C371.033 105.488 234.494 93.04 346.529 18.11C436.158 -41.8341 367.436 -117.957 337.307 -103.832" stroke="#4F5509"/>
<path d="M-79.612 362.234C-67.812 236.339 99.0618 354.374 165.637 267.674C232.213 180.973 151.011 168.249 103.963 200.743C56.9147 233.238 62.8335 300.255 112.225 318.465C161.616 336.675 251.38 374.905 313.261 242.577C375.143 110.248 248.503 98.5777 358.266 25.7602C446.689 -32.7848 373.493 -105.708 344.799 -92.2556" stroke="#575D10"/>
<path d="M-78.6887 376.361C-67.4787 256.761 95.145 365.319 160.959 280.514C226.773 195.708 153.659 182.679 114.722 214.308C75.7856 245.936 79.4997 301.701 128.891 319.911C178.282 338.121 255.489 379.671 317.37 247.342C379.252 115.014 262.511 104.121 370.002 33.4161C457.219 -23.73 379.549 -93.4536 352.289 -80.6738" stroke="#5F6517"/>
<path d="M-77.7663 390.496C-67.1464 277.19 91.2272 376.271 156.28 293.361C221.332 210.45 156.305 197.115 125.48 227.878C94.6555 258.642 96.165 303.154 145.556 321.364C194.947 339.573 259.597 384.443 321.478 252.115C383.36 119.787 276.519 109.671 381.737 41.0787C467.748 -14.6685 385.604 -81.1924 359.779 -69.0852" stroke="#676D1E"/>
<path d="M-76.8455 404.639C-66.8155 297.628 87.3079 387.231 151.599 306.216C215.89 225.201 158.95 211.56 136.237 241.458C113.524 271.356 112.829 304.615 162.22 322.825C211.611 341.035 263.703 389.225 325.585 256.896C387.466 124.568 290.525 115.23 393.47 48.7499C478.276 -5.59834 391.658 -68.9225 367.268 -57.488" stroke="#6F7525"/>
<path d="M-75.9267 418.792C-66.4867 318.076 83.3866 398.202 146.916 319.082C210.446 239.962 161.593 226.015 146.992 255.048C132.39 284.081 129.491 306.087 178.882 324.297C228.273 342.507 267.808 394.016 329.689 261.688C391.571 129.36 304.529 120.799 405.201 56.4317C488.802 3.48245 397.709 -56.6421 374.754 -45.8801" stroke="#777D2D"/>
<path d="M-75.0106 432.96C-66.1606 338.538 79.4625 409.187 142.23 331.962C204.998 254.737 164.234 240.484 157.744 268.652C151.254 296.82 146.15 307.573 195.541 325.782C244.932 343.992 271.909 398.822 333.791 266.493C395.673 134.165 318.53 126.382 416.93 64.1271C499.325 12.5768 403.758 -44.348 382.237 -34.2587" stroke="#7F8534"/>
<path d="M-74.0984 447.144C-65.8384 359.018 75.5346 420.189 137.541 344.859C199.547 269.529 166.87 254.971 168.492 282.273C170.114 309.576 162.805 309.076 212.196 327.285C261.587 345.495 276.007 403.645 337.889 271.316C399.77 138.988 332.527 131.982 428.655 71.84C509.844 21.6886 409.803 -32.0365 389.717 -22.6198" stroke="#878E3B"/>
<path d="M-73.1915 461.353C-65.5215 379.521 71.6013 431.214 132.846 357.78C194.091 284.345 169.501 269.48 179.235 295.918C188.968 322.355 179.455 310.602 228.846 328.812C278.237 347.021 280.1 408.491 341.981 276.163C403.863 143.834 346.519 137.606 440.374 79.5763C520.358 30.8239 415.843 -19.7016 397.191 -10.9575" stroke="#8F9642"/>
<path d="M-72.2922 475.592C-65.2122 400.055 67.6605 442.271 128.144 370.731C188.627 299.192 172.125 284.022 189.97 309.594C207.815 335.166 196.097 312.16 245.488 330.37C294.879 348.579 284.185 413.369 346.066 281.04C407.948 148.712 360.504 143.261 452.086 87.3439C530.864 39.9904 421.875 -7.33539 404.658 0.736083" stroke="#979E4A"/>
<path d="M-71.4038 489.874C-64.9138 420.632 63.7088 453.37 123.431 383.726C183.152 314.082 174.737 298.606 200.694 323.312C226.651 348.019 212.728 313.76 262.119 331.97C311.51 350.18 288.259 418.289 350.14 285.961C412.022 153.632 374.477 148.959 463.787 95.1543C541.36 49.1998 427.896 5.07366 412.114 12.4725" stroke="#9FA651"/>
<path d="M-70.531 504.216C-64.631 441.268 59.7414 464.529 118.702 396.78C177.662 329.031 177.334 313.249 211.403 337.09C245.471 360.932 229.344 315.42 278.735 333.63C328.126 351.84 292.317 423.269 354.199 290.94C416.08 158.612 388.435 154.716 475.472 103.024C551.84 58.4684 433.901 17.542 419.554 24.2682" stroke="#A7AE58"/>
<path d="M-69.6807 518.64C-64.3707 461.987 55.7516 475.771 113.95 409.917C172.149 344.063 179.909 327.975 222.089 350.951C264.269 373.928 245.937 317.163 295.328 335.373C344.719 353.582 296.353 428.331 358.235 296.003C420.116 163.674 402.37 160.556 487.135 110.976C562.297 67.8199 439.885 30.0931 426.972 36.1467" stroke="#AFB65F"/>
<path d="M-68.8619 533.178C-64.1419 482.82 51.7302 487.126 109.168 423.168C166.605 359.209 182.452 342.815 232.743 364.926C283.035 387.037 262.499 319.02 311.89 337.229C361.281 355.439 300.358 433.508 362.239 301.179C424.121 168.851 416.274 166.51 498.767 119.043C572.723 77.2853 445.836 42.7582 434.358 48.1392" stroke="#B7BE66"/>
<path d="M-68.0858 547.869C-63.9558 503.806 47.6661 498.634 104.342 436.571C161.018 374.507 184.952 357.808 243.355 379.054C301.759 400.299 279.018 321.029 328.409 339.238C377.8 357.448 304.319 438.837 366.201 306.508C428.082 174.18 430.136 172.616 510.355 127.262C583.106 86.9033 451.745 55.5759 441.702 60.2842" stroke="#BFC66E"/>
<path d="M-67.3645 562.754C-63.8245 524.985 43.5473 510.337 99.4615 450.168C155.376 390 187.397 372.994 253.913 393.375C320.428 413.755 295.482 323.232 344.873 341.441C394.264 359.651 308.226 444.36 370.108 312.031C431.989 179.703 443.942 178.916 521.889 135.675C593.434 96.7152 457.599 68.5875 448.991 72.6232" stroke="#C7CE75"/>
<path d="M-66.7083 577.871C-63.7583 546.397 39.3634 522.271 94.5161 463.997C149.669 405.724 189.778 388.413 264.405 407.928C339.032 427.443 311.881 325.667 361.272 343.877C410.663 362.086 312.068 450.115 373.95 317.786C435.831 185.458 457.683 185.449 533.358 144.32C603.697 106.759 463.388 81.8312 456.214 85.1943" stroke="#D0D67C"/>
<path d="M-66.1237 593.247C-63.7637 568.068 35.1078 534.464 89.499 478.086C143.89 421.708 192.086 404.091 274.825 422.741C357.564 441.391 328.209 328.362 377.6 346.571C426.991 364.781 315.838 456.129 377.72 323.801C439.601 191.473 471.353 192.241 544.755 153.225C613.889 117.063 469.105 95.3344 463.367 98.0249" stroke="#D8DE83"/>
<path d="M-65.6124 608.898C-63.8424 590.013 30.779 546.932 84.4086 492.449C138.038 437.966 194.322 420.044 285.172 437.828C376.023 455.613 344.463 331.33 393.854 349.54C443.245 367.75 319.535 462.418 381.417 330.09C443.298 197.761 484.949 199.307 556.079 162.403C624.007 127.64 474.749 109.112 470.445 111.13" stroke="#E0E68B"/>
<path d="M-65.171 624.825C-63.991 612.235 26.3803 559.677 79.2484 507.089C132.117 454.501 196.487 436.273 295.45 453.192C394.412 470.111 360.647 334.576 410.038 352.786C459.43 370.995 323.162 468.983 385.044 336.655C446.926 204.327 498.476 206.65 567.333 171.859C634.055 138.495 480.324 123.166 477.454 124.511" stroke="#E8EF92"/>
<path d="M-64.7912 641.023C-64.2012 634.729 21.9199 572.693 74.0265 522C126.133 471.307 198.591 452.773 305.665 468.827C412.739 484.881 376.77 338.093 426.161 356.302C475.552 374.512 326.728 475.82 388.609 343.492C450.491 211.163 511.941 214.264 578.525 181.585C644.042 149.62 485.836 137.491 484.401 138.164" stroke="#F0F799"/>
</g>
</g>
<defs>
<clipPath id="clip0_402_493340">
<rect width="375" height="812" fill="white"/>
</clipPath>
</defs>
</svg>
